<svg width="32" height="32" viewBox="0 0 32 32" fill="none" xmlns="http://www.w3.org/2000/svg">
<g clip-path="url(#clip0_130_187)">
<circle cx="16" cy="16" r="16" fill="white"/>
<path d="M23.5833 12.6667H22.695L20.8533 7.59669C20.7009 7.17863 20.4239 6.81739 20.0597 6.56169C19.6955 6.30598 19.2617 6.16812 18.8167 6.16669H17.0833C16.4875 6.16669 16 6.65419 16 7.25002C16 7.84585 16.4875 8.33335 17.0833 8.33335H18.8167L20.3983 12.6667H15.1875L14.7975 11.5834H14.895C15.4908 11.5834 15.9783 11.0959 15.9783 10.5C15.9783 9.90419 15.4908 9.41669 14.895 9.41669H11.6667C11.0708 9.41669 10.5833 9.90419 10.5833 10.5C10.5833 11.0959 11.0708 11.5834 11.6667 11.5834H12.4792L14.4508 17H13.725C13.2483 14.5842 11.2225 12.7967 8.6875 12.6775C5.65417 12.5259 3 15.05 3 18.0834C3 21.1167 5.38333 23.5 8.41667 23.5C11.0817 23.5 13.2375 21.6692 13.725 19.1667H18.275C18.7517 21.5825 20.7775 23.37 23.3125 23.4892C26.3458 23.63 29 21.1167 29 18.0725C29 15.05 26.6167 12.6667 23.5833 12.6667ZM9.5 19.1667H11.4717C11.0167 20.4992 9.73833 21.42 8.2 21.3225C6.58583 21.225 5.2425 19.86 5.16667 18.235C5.09083 16.3392 6.5425 14.8334 8.41667 14.8334C9.8575 14.8334 11.0383 15.7325 11.4717 17H9.5C8.90417 17 8.41667 17.4875 8.41667 18.0834C8.41667 18.6792 8.90417 19.1667 9.5 19.1667ZM18.275 17H16.7583L15.9675 14.8334H19.25C18.7733 15.4617 18.4267 16.1875 18.275 17ZM23.4533 21.3334C21.785 21.2684 20.3767 19.8492 20.3333 18.17C20.3117 17.13 20.7558 16.22 21.4708 15.6134L22.1425 17.455C22.3483 18.0184 22.9658 18.3109 23.5292 18.105C24.0925 17.8992 24.385 17.2817 24.1792 16.7184L23.4967 14.8442L23.5075 14.8334C23.9418 14.8185 24.3747 14.8919 24.7799 15.049C25.1851 15.2061 25.5543 15.4437 25.8651 15.7475C26.1759 16.0512 26.422 16.4148 26.5884 16.8163C26.7548 17.2177 26.8381 17.6488 26.8333 18.0834C26.8333 19.9467 25.3383 21.3984 23.4533 21.3334Z" fill="url(#paint0_linear_130_187)"/>
</g>
<defs>
<linearGradient id="paint0_linear_130_187" x1="16" y1="6.16669" x2="16" y2="23.5" gradientUnits="userSpaceOnUse">
<stop stop-color="#FFB60D"/>
<stop offset="1" stop-color="#E59317"/>
</linearGradient>
<clipPath id="clip0_130_187">
<rect width="32" height="32" fill="white"/>
</clipPath>
</defs>
</svg>
